HIERARCHY
ROOT Hips
{
	OFFSET 0.000000 0.000000 0.000000
	CHANNELS 6 Xposition Yposition Zposition Zrotation Yrotation Xrotation 
	JOINT LowerBack
	{
		OFFSET 0.000000 0.000000 0.000000
		CHANNELS 3 Zrotation Yrotation Xrotation
		JOINT Spine
		{
			OFFSET 0.028270 2.035590 -0.193380
			CHANNELS 3 Zrotation Yrotation Xrotation
			JOINT Spine1
			{
				OFFSET 0.056720 2.048850 -0.042750
				CHANNELS 3 Zrotation Yrotation Xrotation
				JOINT Neck
				{
					OFFSET 0.000000 0.000000 0.000000
					CHANNELS 3 Zrotation Yrotation Xrotation
					JOINT Neck1
					{
						OFFSET -0.054170 1.746240 0.172020
						CHANNELS 3 Zrotation Yrotation Xrotation
						JOINT Head
						{
							OFFSET 0.104070 1.761360 -0.123970
							CHANNELS 3 Zrotation Yrotation Xrotation
							End Site
							{
								OFFSET 0.000000 0.000000 0.000000
							}
						}
					}
				}
				JOINT LeftShoulder
				{
					OFFSET 0.000000 0.000000 0.000000
					CHANNELS 3 Zrotation Yrotation Xrotation
					JOINT LeftArm
					{
						OFFSET 3.362410 1.200890 -0.311210
						CHANNELS 3 Zrotation Yrotation Xrotation
						JOINT LeftForeArm
						{
							OFFSET 4.983000 -0.000000 -0.000000
							CHANNELS 3 Zrotation Yrotation Xrotation
							JOINT LeftHand
							{
								OFFSET 3.483560 -0.000000 -0.000000
								CHANNELS 3 Zrotation Yrotation Xrotation
								JOINT LeftFingerBase
								{
									OFFSET 0.000000 0.000000 0.000000
									CHANNELS 3 Zrotation Yrotation Xrotation
									JOINT LeftHandIndex1
									{
										OFFSET 0.715260 -0.000000 -0.000000
										CHANNELS 3 Zrotation Yrotation Xrotation
										End Site
										{
											OFFSET 0.000000 0.000000 0.000000
										}
									}
								}
								JOINT LThumb
								{
									OFFSET 0.000000 0.000000 0.000000
									CHANNELS 3 Zrotation Yrotation Xrotation
									End Site
									{
										OFFSET 0.000000 0.000000 0.000000
									}
								}
							}
						}
					}
				}
				JOINT RightShoulder
				{
					OFFSET 0.000000 0.000000 0.000000
					CHANNELS 3 Zrotation Yrotation Xrotation
					JOINT RightArm
					{
						OFFSET -3.136600 1.374050 -0.404650
						CHANNELS 3 Zrotation Yrotation Xrotation
						JOINT RightForeArm
						{
							OFFSET -5.241900 -0.000000 -0.000000
							CHANNELS 3 Zrotation Yrotation Xrotation
							JOINT RightHand
							{
								OFFSET -3.444170 -0.000000 -0.000000
								CHANNELS 3 Zrotation Yrotation Xrotation
								JOINT RightFingerBase
								{
									OFFSET 0.000000 0.000000 0.000000
									CHANNELS 3 Zrotation Yrotation Xrotation
									JOINT RightHandIndex1
									{
										OFFSET -0.622530 -0.000000 -0.000000
										CHANNELS 3 Zrotation Yrotation Xrotation
										End Site
										{
											OFFSET 0.000000 0.000000 0.000000
										}
									}
								}
								JOINT RThumb
								{
									OFFSET 0.000000 0.000000 0.000000
									CHANNELS 3 Zrotation Yrotation Xrotation
									End Site
									{
										OFFSET 0.000000 0.000000 0.000000
									}
								}
							}
						}
					}
				}
			}
		}
	}
}
}
MOTION
Frames: 6
Frame Time: 0.008333
-6.439169 16.287896 -0.799055 161.301586 88.621605 -178.960673 7.397287 -3.774560 1.704151 0.321199 -4.255969 -2.049849 -8.831007 -4.198342 1.873964 10.604928 -7.591309 -6.095688 -4.592751 -0.345214 0.252938 0.000000 0.000000 0.000000 1.109245 3.601908 3.404514 -24.094739 -21.414673 15.333347 -0.513903 -81.473533 0.057158 -14.209297 -1.082133 0.167092 0.149033 0.245302 0.000000 0.000000 0.000000 0.000000 0.000000 0.000000 0.000000 21.461423 -7.441845 1.359337 58.496924 0.104535 -8.281407 3.549142 29.365386 0.022022 2.906990 12.358803 0.309374 0.077726 -0.086080 -0.000000 0.000000 0.000000 0.000000 0.000000 0.000000 0.000000 
-6.187053 16.265361 -0.818920 22.204639 89.731057 42.041662 7.764822 -3.268442 1.858436 0.283065 -3.791784 -2.076150 -8.874795 -3.737387 1.783143 10.398166 -7.039053 -6.038478 -4.659144 -0.349268 0.264273 0.000000 0.000000 0.000000 0.810953 4.075313 3.372755 -24.348712 -20.608391 15.558509 -0.523812 -81.657207 0.055534 -14.242949 -1.143234 0.174184 0.143575 0.238403 -0.000000 0.000000 0.000000 0.000000 0.000000 0.000000 0.000000 21.469207 -6.661413 1.432162 58.547310 0.475159 -9.109206 3.615639 27.985999 0.022241 2.760859 12.341784 0.292874 0.079517 -0.087612 -0.000000 0.000000 0.000000 0.000000 0.000000 0.000000 0.000000 
-5.938970 16.249823 -0.840191 38.238500 89.800861 58.091312 8.188781 -3.212338 1.922839 0.360676 -3.759981 -2.101888 -8.869131 -3.713129 1.720889 10.199857 -6.422326 -5.921084 -4.724214 -0.354020 0.291504 0.000000 0.000000 0.000000 0.547784 4.250395 3.418054 -24.770458 -19.850304 15.916138 -0.543020 -81.717192 0.054370 -14.282712 -1.205070 0.181808 0.136398 0.232864 -0.000000 0.000000 0.000000 0.000000 0.000000 0.000000 0.000000 21.459391 -6.036250 1.463248 58.606701 0.815370 -10.010676 3.651617 26.560446 0.021858 2.613161 12.315050 0.276259 0.079070 -0.087572 -0.000000 0.000000 0.000000 0.000000 0.000000 0.000000 0.000000 
-5.695357 16.241849 -0.862401 -135.293149 89.762383 -115.423338 8.901624 -3.164698 1.996049 0.504191 -3.744634 -2.123497 -8.870392 -3.706649 1.651423 10.001786 -5.757642 -5.774141 -4.790052 -0.358952 0.326129 0.000000 0.000000 0.000000 0.297601 4.398273 3.470771 -25.323161 -19.120134 16.384335 -0.571682 -81.656504 0.053235 -14.323857 -1.270088 0.189745 0.128440 0.227238 0.000000 0.000000 0.000000 0.000000 0.000000 0.000000 0.000000 21.435400 -5.380905 1.487760 58.681217 1.203135 -10.965997 3.682794 25.082159 0.021425 2.469222 12.280551 0.259943 0.078376 -0.087696 -0.000000 0.000000 0.000000 0.000000 0.000000 0.000000 0.000000 
-5.456634 16.241721 -0.884431 -132.745922 89.230136 -112.848344 9.663794 -3.093690 2.081337 0.654675 -3.706600 -2.141777 -8.874504 -3.677698 1.580533 9.818730 -5.065502 -5.608546 -4.855611 -0.363821 0.365258 0.000000 0.000000 0.000000 0.066032 4.546578 3.520082 -25.967208 -18.444636 16.961157 -0.610207 -81.462251 0.052000 -14.365023 -1.335457 0.197791 0.119963 0.221058 0.000000 0.000000 0.000000 0.000000 0.000000 0.000000 0.000000 21.423632 -4.698817 1.508418 58.774194 1.652179 -11.963778 3.707993 23.567828 0.020959 2.327676 12.243444 0.243926 0.077472 -0.088129 -0.000000 0.000000 0.000000 0.000000 0.000000 0.000000 0.000000 
-5.223170 16.249538 -0.904696 -132.337074 88.679372 -112.402768 10.369320 -3.003089 2.174594 0.790254 -3.645469 -2.158805 -8.879283 -3.625974 1.503991 9.667056 -4.361567 -5.421290 -4.921650 -0.368753 0.410135 0.000000 0.000000 0.000000 -0.103351 4.637972 3.562662 -26.727671 -17.754979 17.628837 -0.657476 -81.146300 0.050603 -14.418304 -1.393287 0.204941 0.111477 0.213913 0.000000 0.000000 0.000000 0.000000 0.000000 0.000000 0.000000 21.448946 -4.007145 1.528621 58.884564 2.152701 -12.984558 3.724913 22.042505 0.020461 2.181222 12.212303 0.227611 0.076356 -0.088897 -0.000000 0.000000 0.000000 0.000000 0.000000 0.000000 0.000000 
